<svg width="25" height="24" viewBox="0 0 25 24" fill="none" xmlns="http://www.w3.org/2000/svg">
<g clip-path="url(#clip0)">
<path fill-rule="evenodd" clip-rule="evenodd" d="M24.1149 11.9987C24.1149 18.6262 18.7423 23.9987 12.1149 23.9987C5.48739 23.9987 0.114868 18.6262 0.114868 11.9987C0.114868 5.37121 5.48739 -0.00131226 12.1149 -0.00131226C18.7423 -0.00131226 24.1149 5.37121 24.1149 11.9987Z" fill="#212121"/>
<path fill-rule="evenodd" clip-rule="evenodd" d="M12.1149 14.3536L9.75989 11.9987L12.1149 9.64371L14.4699 11.9987L12.1149 14.3536Z" fill="#F4BB0B"/>
<path fill-rule="evenodd" clip-rule="evenodd" d="M17.4666 11.9987L17.4566 12.0085L19.6409 14.1926L21.8348 11.9987L19.6258 9.78946L17.4415 11.9736L17.4666 11.9987Z" fill="#F4BB0B"/>
<path fill-rule="evenodd" clip-rule="evenodd" d="M8.32963 10.4322L12.1148 6.64702L15.9556 10.4879L18.1397 8.30374L12.1148 2.27878L6.14551 8.24806L8.32963 10.4322Z" fill="#F4BB0B"/>
<path fill-rule="evenodd" clip-rule="evenodd" d="M15.9707 13.4944L12.1148 17.3504L8.29301 13.5285L6.10889 15.7126L12.1148 21.7186L18.1548 15.6785L15.9707 13.4944Z" fill="#F4BB0B"/>
<path fill-rule="evenodd" clip-rule="evenodd" d="M6.76314 11.9987L6.84378 11.9181L4.65966 9.73383L2.3949 11.9987L4.62306 14.2269L6.80718 12.0427L6.76314 11.9987Z" fill="#F4BB0B"/>
</g>
<defs>
<clipPath id="clip0">
<rect width="24.12" height="24" fill="white"/>
</clipPath>
</defs>
</svg>
