<svg width="25" height="24" viewBox="0 0 25 24" fill="none" xmlns="http://www.w3.org/2000/svg">
<g clip-path="url(#clip0)">
<path fill-rule="evenodd" clip-rule="evenodd" d="M24.0176 11.9995C24.0176 18.627 18.6451 23.9995 12.0176 23.9995C5.3901 23.9995 0.0175781 18.627 0.0175781 11.9995C0.0175781 5.37206 5.3901 -0.000457764 12.0176 -0.000457764C18.6451 -0.000457764 24.0176 5.37206 24.0176 11.9995Z" fill="#F7931A"/>
<path fill-rule="evenodd" clip-rule="evenodd" d="M14.9311 15.5066C14.8307 15.8442 14.6047 16.1223 14.2949 16.2898C13.985 16.4576 13.6286 16.4946 13.2911 16.394L9.91174 15.3876L10.6646 12.86L14.0437 13.8666H14.0438C14.7405 14.074 15.1387 14.8098 14.9311 15.5066ZM16.0709 10.3268C16.2384 10.6366 16.2753 10.993 16.1749 11.3307C15.9673 12.0273 15.2312 12.4252 14.5349 12.2181H14.5347L11.1555 11.2117L11.9082 8.68412L15.2875 9.69056C15.6251 9.79112 15.9032 10.017 16.0709 10.3268ZM17.5836 9.5084C17.1973 8.79452 16.5561 8.27372 15.7784 8.04212L15.3313 7.90904L15.9572 5.80736L14.3513 5.32904L13.7253 7.43072L12.3542 7.02236L12.9803 4.92068L12.5955 4.80608L11.037 4.34192L10.4336 6.36776L8.53426 5.80208L7.99822 7.60208L9.89758 8.16788L7.94626 14.7196L6.0469 14.154L5.51086 15.9541L7.4101 16.5196L6.90094 18.2295L7.28554 18.3441L8.8441 18.8083L9.37594 17.0226L10.7503 17.4319L10.2185 19.2177L11.8179 19.6941L12.3498 17.9083L12.8 18.0423C13.0871 18.1278 13.3802 18.1701 13.6716 18.1701C14.1696 18.1701 14.6629 18.0464 15.1133 17.8027C15.8271 17.4164 16.3478 16.7754 16.5795 15.9974C16.8231 15.1791 16.7029 14.3385 16.3154 13.6466C17.0189 13.2795 17.5794 12.6403 17.8232 11.8216C18.0549 11.0437 17.9697 10.2222 17.5836 9.5084Z" fill="white"/>
</g>
<defs>
<clipPath id="clip0">
<rect width="24.12" height="24" fill="white"/>
</clipPath>
</defs>
</svg>
