<svg width="24" height="24" viewBox="0 0 24 24" fill="none" xmlns="http://www.w3.org/2000/svg">
<path fill-rule="evenodd" clip-rule="evenodd" d="M23.8981 11.968C23.8981 18.5625 18.5523 23.9083 11.9578 23.9083C5.36325 23.9083 0.0174561 18.5625 0.0174561 11.968C0.0174561 5.37347 5.36325 0.0276794 11.9578 0.0276794C18.5523 0.0276794 23.8981 5.37347 23.8981 11.968Z" fill="#0986D3"/>
<path fill-rule="evenodd" clip-rule="evenodd" d="M19.7857 10.3355L18.0891 15.2483C17.7334 16.2802 16.7611 16.9739 15.6697 16.9739H5.28076L6.08076 14.3984H15.6584L17.3455 9.51458H7.59706L8.39706 6.93906H17.3664C18.1922 6.93906 18.9713 7.34145 19.4509 8.01428C19.9306 8.68712 20.0562 9.5547 19.7857 10.3355Z" fill="white"/>
<path fill-rule="evenodd" clip-rule="evenodd" d="M11.6888 10.6686V10.8313L10.9403 13.2442H3.98962L4.78962 10.6686H11.6888Z" fill="white"/>
</svg>
