<svg width="131" height="131" viewBox="0 0 131 131" fill="none" xmlns="http://www.w3.org/2000/svg">
<circle cx="65.5" cy="65.5" r="64.5" stroke="#00B412" stroke-width="2"/>
<path d="M68.2847 53H72.2007V36.94H66.1067V40.438H68.2847V53ZM74.7742 44.75C74.7742 49.502 76.3802 52.934 80.9562 52.934C85.5322 52.934 87.1382 49.502 87.1382 44.75C87.1382 40.042 85.5322 36.61 80.9562 36.61C76.3802 36.61 74.7742 40.042 74.7742 44.75ZM83.4422 44.75C83.4422 47.302 83.1782 49.414 80.9562 49.414C78.7342 49.414 78.4702 47.302 78.4702 44.75C78.4702 42.286 78.7342 40.13 80.9562 40.13C83.1782 40.13 83.4422 42.286 83.4422 44.75ZM89.1257 44.75C89.1257 49.502 90.7317 52.934 95.3077 52.934C99.8837 52.934 101.49 49.502 101.49 44.75C101.49 40.042 99.8837 36.61 95.3077 36.61C90.7317 36.61 89.1257 40.042 89.1257 44.75ZM97.7937 44.75C97.7937 47.302 97.5297 49.414 95.3077 49.414C93.0857 49.414 92.8217 47.302 92.8217 44.75C92.8217 42.286 93.0857 40.13 95.3077 40.13C97.5297 40.13 97.7937 42.286 97.7937 44.75ZM62.7824 68.774C62.7824 73.042 65.5764 75.154 69.1624 75.154C72.7264 75.154 75.7184 73.042 75.7184 68.774V59.556H71.9564V68.796C71.9564 70.622 71.0104 71.678 69.2284 71.678C67.4464 71.678 66.5444 70.622 66.5444 68.796V59.556H62.7824V68.774ZM89.5801 70.402C89.5801 65.232 81.9461 66.442 81.9461 63.758C81.9461 62.79 82.6281 62.328 83.5301 62.35C84.5421 62.372 85.2461 62.966 85.3121 63.956H89.3821C89.2281 61.008 86.9621 59.336 83.5961 59.336C80.3621 59.336 77.9641 60.964 77.9641 63.89C77.9201 69.368 85.6421 67.828 85.6421 70.688C85.6421 71.59 84.9381 72.14 83.8381 72.14C82.7821 72.14 82.0341 71.568 81.9241 70.38H77.9201C78.0301 73.504 80.6261 75.154 83.9481 75.154C87.5561 75.154 89.5801 72.998 89.5801 70.402ZM97.6813 59.556H91.8953V75H97.6813C102.609 75 105.777 71.854 105.777 67.278C105.777 62.68 102.609 59.556 97.6813 59.556ZM95.6573 71.744V62.768H97.4393C100.277 62.768 101.949 64.44 101.949 67.278C101.949 70.116 100.277 71.744 97.4393 71.744H95.6573Z" fill="#00B412"/>
<path d="M29.5667 93H31.7027V84.24H28.3787V86.148H29.5667V93ZM33.1064 88.5C33.1064 91.092 33.9824 92.964 36.4784 92.964C38.9744 92.964 39.8504 91.092 39.8504 88.5C39.8504 85.932 38.9744 84.06 36.4784 84.06C33.9824 84.06 33.1064 85.932 33.1064 88.5ZM37.8344 88.5C37.8344 89.892 37.6904 91.044 36.4784 91.044C35.2664 91.044 35.1224 89.892 35.1224 88.5C35.1224 87.156 35.2664 85.98 36.4784 85.98C37.6904 85.98 37.8344 87.156 37.8344 88.5ZM40.7665 86.448C40.7665 87.78 41.6305 88.476 42.7705 88.476C43.9105 88.476 44.7625 87.78 44.7625 86.448C44.7625 85.116 43.9105 84.42 42.7705 84.42C41.6305 84.42 40.7665 85.116 40.7665 86.448ZM42.7585 85.62C43.1185 85.62 43.3465 85.872 43.3465 86.448C43.3465 87.012 43.1185 87.264 42.7585 87.264C42.3985 87.264 42.1825 87.012 42.1825 86.448C42.1825 85.872 42.3985 85.62 42.7585 85.62ZM42.3145 93H44.2945L48.9145 84.552H46.9345L42.3145 93ZM46.4785 91.104C46.4785 92.436 47.3305 93.132 48.4705 93.132C49.6105 93.132 50.4625 92.436 50.4625 91.104C50.4625 89.76 49.6105 89.076 48.4705 89.076C47.3305 89.076 46.4785 89.76 46.4785 91.104ZM48.4585 90.276C48.8185 90.276 49.0465 90.54 49.0465 91.104C49.0465 91.668 48.8185 91.92 48.4585 91.92C48.0985 91.92 47.8825 91.668 47.8825 91.104C47.8825 90.54 48.0985 90.276 48.4585 90.276ZM58.7669 90.432C58.7669 91.032 58.3709 91.344 57.6869 91.344H56.1749V89.484H57.6629C58.3469 89.484 58.7669 89.832 58.7669 90.432ZM58.5629 87.108C58.5629 87.684 58.1909 87.984 57.5189 87.984H56.1749V86.22H57.5189C58.1909 86.22 58.5629 86.532 58.5629 87.108ZM60.8429 90.708C60.8429 89.748 60.2069 88.884 59.2229 88.68C60.0389 88.44 60.6509 87.78 60.6509 86.76C60.6509 85.428 59.6309 84.576 57.9149 84.576H54.1229V93H58.0469C59.8229 93 60.8429 92.1 60.8429 90.708ZM62.0331 93H64.0851V86.304H62.0331V93ZM63.0651 85.608C63.7851 85.608 64.2771 85.116 64.2771 84.504C64.2771 83.88 63.7851 83.388 63.0651 83.388C62.3331 83.388 61.8411 83.88 61.8411 84.504C61.8411 85.116 62.3331 85.608 63.0651 85.608ZM65.1641 89.64C65.1641 91.752 66.4721 93.096 68.1161 93.096C69.1001 93.096 69.8081 92.652 70.1801 92.04V93H72.2321V84.12H70.1801V87.228C69.7721 86.616 69.0041 86.208 68.1161 86.208C66.4721 86.208 65.1641 87.528 65.1641 89.64ZM70.1801 89.652C70.1801 90.72 69.4961 91.308 68.7161 91.308C67.9481 91.308 67.2521 90.708 67.2521 89.64C67.2521 88.572 67.9481 87.996 68.7161 87.996C69.4961 87.996 70.1801 88.584 70.1801 89.652ZM75.7687 87.252V84.12H73.7167V93H75.7687V92.064C76.1407 92.652 76.8487 93.096 77.8327 93.096C79.4767 93.096 80.7847 91.752 80.7847 89.64C80.7847 87.528 79.4887 86.208 77.8327 86.208C76.8727 86.208 76.1407 86.652 75.7687 87.252ZM78.6967 89.64C78.6967 90.708 78.0007 91.308 77.2207 91.308C76.4527 91.308 75.7567 90.72 75.7567 89.652C75.7567 88.584 76.4527 87.996 77.2207 87.996C78.0007 87.996 78.6967 88.572 78.6967 89.64ZM81.4532 89.64C81.4532 91.752 82.7612 93.096 84.3932 93.096C85.3892 93.096 86.0972 92.64 86.4692 92.052V93H88.5212V86.304H86.4692V87.252C86.1092 86.664 85.4012 86.208 84.4052 86.208C82.7612 86.208 81.4532 87.528 81.4532 89.64ZM86.4692 89.652C86.4692 90.72 85.7852 91.308 85.0052 91.308C84.2372 91.308 83.5412 90.708 83.5412 89.64C83.5412 88.572 84.2372 87.996 85.0052 87.996C85.7852 87.996 86.4692 88.584 86.4692 89.652ZM89.5977 89.652C89.5977 91.776 90.9897 93.096 92.9577 93.096C94.6377 93.096 95.8257 92.124 96.1737 90.576H93.9897C93.8097 91.068 93.4857 91.344 92.9217 91.344C92.1897 91.344 91.6857 90.768 91.6857 89.652C91.6857 88.536 92.1897 87.96 92.9217 87.96C93.4857 87.96 93.8217 88.26 93.9897 88.728H96.1737C95.8257 87.132 94.6377 86.208 92.9577 86.208C90.9897 86.208 89.5977 87.54 89.5977 89.652ZM97.2713 93H99.3233V90.192L101.363 93H103.907L101.099 89.664L103.883 86.304H101.351L99.3233 89.028V84.12H97.2713V93Z" fill="#FFA800"/>
<path d="M24.5862 42.1853L24.5554 49.3978C24.5548 49.5317 24.5189 49.6629 24.4517 49.7765C24.3845 49.8902 24.2886 49.9818 24.1748 50.0412C24.061 50.1005 23.9338 50.1252 23.8074 50.1125C23.6811 50.0999 23.5606 50.0503 23.4594 49.9694L22.8144 49.4534C21.824 51.9026 21.4388 54.577 21.6947 57.2263C21.9507 59.8755 22.8394 62.4128 24.2777 64.6006L23.1557 65.4239C21.4973 62.9021 20.5097 59.9572 20.2955 56.8958C20.0813 53.8343 20.6484 50.7682 21.9377 48.0167C21.9824 47.9215 22.0464 47.838 22.1252 47.772C22.204 47.706 22.2956 47.6592 22.3935 47.6349C22.4914 47.6106 22.5932 47.6094 22.6915 47.6314C22.7899 47.6534 22.8825 47.698 22.9627 47.7622L23.1951 47.948L23.2156 43.1405L18.8379 44.4658L19.528 45.017C19.6587 45.1214 19.7495 45.2719 19.7838 45.4411C19.8182 45.6103 19.7937 45.7868 19.715 45.9386C19.2594 46.8174 18.8666 47.731 18.5399 48.6716L17.2568 48.1758C17.539 47.3631 17.8673 46.5691 18.24 45.7981L16.9233 44.7461C16.8221 44.6652 16.7442 44.5563 16.6984 44.4313C16.6526 44.3064 16.6406 44.1705 16.6639 44.0388C16.6871 43.9071 16.7447 43.7849 16.83 43.6858C16.9154 43.5867 17.0252 43.5146 17.1472 43.4777L23.7144 41.4887C23.8164 41.4579 23.9238 41.4525 24.0281 41.473C24.1324 41.4935 24.2307 41.5394 24.3153 41.607C24.3999 41.6746 24.4684 41.762 24.5154 41.8624C24.5624 41.9628 24.5866 42.0733 24.5862 42.1853ZM18.1783 65.3362L19.3997 64.6883C17.6494 61.0207 17.007 56.8746 17.5591 52.8095C17.6692 51.9878 17.8265 51.1739 18.0301 50.3723L16.7102 49.9982C16.4923 50.8565 16.324 51.7279 16.2063 52.6078C15.6146 56.9636 16.3029 61.4062 18.1783 65.3362ZM33.226 49.2174C32.7911 49.4406 32.3777 49.7076 31.9913 50.0144L32.8129 51.1671C33.1292 50.9159 33.4675 50.6974 33.8234 50.5147L33.226 49.2174ZM28.9857 57.0785H30.3522V56.3573C30.3517 54.749 30.9184 53.1981 31.9419 52.0068L30.9287 51.0391C29.6776 52.4954 28.985 54.3913 28.9857 56.3573V57.0785ZM54.9506 76.5522V70.061H53.584V75.8309H46.7511V67.176H47.4344V65.7335H46.2431C44.6927 64.8355 42.9533 64.3636 41.1848 64.3613C39.4164 64.359 37.6758 64.8264 36.1234 65.7204L36.1004 65.7335H31.0355C30.6157 65.734 30.2016 65.8364 29.8253 66.0329C29.449 66.2294 29.1205 66.5146 28.8654 66.8666C28.6102 67.2185 28.4352 67.6277 28.3539 68.0624C28.2726 68.4972 28.2871 68.9459 28.3963 69.3738L25.7352 68.0865C25.79 67.9851 25.8573 67.8918 25.9354 67.8091L27.419 66.2431C27.547 66.1079 27.619 65.9246 27.6191 65.7335V56.3573C27.6226 54.3086 28.26 52.3171 29.4343 50.686C30.6086 49.0548 32.2556 47.8732 34.1246 47.3208C34.2257 47.2913 34.3189 47.2375 34.3972 47.1638C34.4754 47.09 34.5365 46.9983 34.5758 46.8956C34.615 46.7929 34.6313 46.6821 34.6235 46.5716C34.6156 46.4612 34.5837 46.3542 34.5304 46.2589L32.9162 43.3748H40.0875L38.4732 46.2589C38.4198 46.3542 38.388 46.4612 38.3801 46.5716C38.3722 46.6821 38.3885 46.7929 38.4278 46.8956C38.467 46.9983 38.5281 47.09 38.6064 47.1638C38.6846 47.2375 38.7779 47.2913 38.879 47.3208C40.748 47.8732 42.395 49.0548 43.5693 50.6859C44.7436 52.3171 45.381 54.3085 45.3845 56.3573V64.291H46.7511V56.3573C46.7469 54.1524 46.1066 52.0011 44.9155 50.1899C43.7244 48.3786 42.0389 46.9932 40.0834 46.2181L41.8731 43.0204C41.9344 42.9109 41.9672 42.7862 41.9681 42.659C41.969 42.5318 41.938 42.4065 41.8783 42.2961C41.8185 42.1856 41.7322 42.0937 41.628 42.0298C41.5237 41.966 41.4053 41.9323 41.2848 41.9323H31.7188C31.5983 41.9323 31.4799 41.966 31.3757 42.0298C31.2715 42.0937 31.1851 42.1856 31.1254 42.2961C31.0656 42.4065 31.0346 42.5318 31.0355 42.659C31.0364 42.7862 31.0692 42.9109 31.1305 43.0204L32.9203 46.2181C30.9648 46.9932 29.2793 48.3786 28.0881 50.1899C26.897 52.0011 26.2567 54.1524 26.2525 56.3573V65.4348L24.969 66.7895C24.7758 66.9933 24.614 67.2279 24.4897 67.4847L22.1836 66.3698C21.5093 66.0528 20.7468 66.0143 20.0469 66.2619C19.347 66.5095 18.7605 67.0252 18.4033 67.7071C17.6175 69.2508 18.1758 71.2922 19.6649 72.0796L27.6322 76.2845C28.8662 76.9333 30.2258 77.2717 31.6044 77.2734H41.2848V75.8309H31.6044C30.4378 75.8294 29.2875 75.5429 28.2434 74.9938L20.2764 70.7891C19.4901 70.3744 19.1941 69.1976 19.6064 68.391C19.7961 68.0285 20.1078 67.7544 20.4798 67.623C20.8518 67.4916 21.257 67.5124 21.6151 67.6814L29.3844 71.4379C29.4737 71.4811 29.5707 71.5034 29.669 71.5034H37.1851V70.061H31.0355C30.6731 70.061 30.3255 69.909 30.0692 69.6385C29.8129 69.3679 29.669 69.001 29.669 68.6185C29.669 68.2359 29.8129 67.869 30.0692 67.5985C30.3255 67.3279 30.6731 67.176 31.0355 67.176H36.2738C36.3874 67.176 36.4993 67.146 36.5993 67.0889L36.7761 66.9878C38.0936 66.2289 39.5672 65.8226 41.068 65.8044C42.5688 65.7862 44.0509 66.1568 45.3845 66.8835V75.8309H42.6514V77.2734H54.2673C54.4485 77.2734 54.6223 77.1974 54.7504 77.0622C54.8786 76.9269 54.9506 76.7435 54.9506 76.5522ZM50.8508 72.9459C50.8508 72.6606 50.7707 72.3818 50.6205 72.1445C50.4704 71.9073 50.2569 71.7224 50.0072 71.6133C49.7575 71.5041 49.4827 71.4755 49.2177 71.5312C48.9526 71.5868 48.7091 71.7242 48.518 71.9259C48.3268 72.1277 48.1967 72.3847 48.144 72.6645C48.0912 72.9443 48.1183 73.2344 48.2217 73.498C48.3252 73.7615 48.5003 73.9868 48.725 74.1453C48.9498 74.3038 49.214 74.3884 49.4843 74.3884C49.8466 74.388 50.1939 74.2359 50.4501 73.9654C50.7063 73.695 50.8504 73.3284 50.8508 72.9459ZM37.1851 53.4723V56.3573C37.91 56.3573 38.6052 56.6612 39.1177 57.2023C39.6303 57.7433 39.9183 58.4771 39.9183 59.2422C39.9183 60.0074 39.6303 60.7412 39.1177 61.2822C38.6052 61.8233 37.91 62.1272 37.1851 62.1272V63.5697H35.8185V62.1272C35.0939 62.1264 34.3992 61.8221 33.8868 61.2813C33.3744 60.7404 33.0862 60.0071 33.0854 59.2422H34.452C34.4524 59.6247 34.5965 59.9913 34.8527 60.2617C35.1089 60.5322 35.4562 60.6843 35.8185 60.6847V57.7998C35.0937 57.7998 34.3985 57.4958 33.8859 56.9548C33.3733 56.4137 33.0854 55.6799 33.0854 54.9148C33.0854 54.1496 33.3733 53.4158 33.8859 52.8748C34.3985 52.3337 35.0937 52.0298 35.8185 52.0298V50.5873H37.1851V52.0298C37.9097 52.0306 38.6044 52.3349 39.1168 52.8757C39.6292 53.4166 39.9174 54.1499 39.9183 54.9148H38.5517C38.5513 54.5323 38.4071 54.1657 38.1509 53.8953C37.8948 53.6248 37.5474 53.4727 37.1851 53.4723ZM35.8185 53.4723C35.4561 53.4723 35.1085 53.6242 34.8522 53.8948C34.5959 54.1653 34.452 54.5322 34.452 54.9148C34.452 55.2973 34.5959 55.6642 34.8522 55.9348C35.1085 56.2053 35.4561 56.3573 35.8185 56.3573V53.4723ZM37.1851 57.7998V60.6847C37.5475 60.6847 37.8951 60.5328 38.1514 60.2622C38.4077 59.9917 38.5517 59.6248 38.5517 59.2422C38.5517 58.8597 38.4077 58.4928 38.1514 58.2222C37.8951 57.9517 37.5475 57.7998 37.1851 57.7998ZM39.1778 35.6409C43.1801 36.238 46.9006 38.1574 49.8058 41.1238C52.7111 44.0902 54.652 47.9514 55.3504 52.1539L56.6965 51.9056C56.1028 48.3295 54.6664 44.9685 52.5193 42.1321C50.3723 39.2958 47.5837 37.0751 44.4104 35.6747C41.237 34.2743 37.7809 33.7391 34.3602 34.1184C30.9395 34.4978 27.6642 35.7794 24.8358 37.8454C24.6907 37.9515 24.5901 38.1128 24.5551 38.2955C24.5202 38.4782 24.5536 38.6681 24.6483 38.8254L26.9292 42.6108C26.9789 42.6933 27.044 42.7643 27.1204 42.8194C27.1969 42.8745 27.2832 42.9127 27.374 42.9315C27.4649 42.9504 27.5584 42.9495 27.6489 42.9291C27.7395 42.9086 27.8251 42.8689 27.9007 42.8124C30.9983 40.4896 34.8227 39.511 38.5841 40.0785C46.7106 41.2906 52.3882 49.2556 51.2396 57.8337C51.0566 59.2082 50.702 60.5512 50.1851 61.8276L49.5234 61.2988C49.4222 61.218 49.3017 61.1685 49.1754 61.1558C49.0491 61.1432 48.9219 61.168 48.8082 61.2273C48.6945 61.2867 48.5986 61.3783 48.5314 61.4919C48.4642 61.6055 48.4283 61.7366 48.4277 61.8706L48.3972 69.0824C48.3967 69.1944 48.4209 69.3049 48.4679 69.4053C48.515 69.5057 48.5835 69.5931 48.6681 69.6607C48.7527 69.7283 48.851 69.7741 48.9553 69.7946C49.0596 69.8152 49.167 69.8097 49.2689 69.7789L55.8364 67.7905C55.9583 67.7535 56.0681 67.6815 56.1535 67.5824C56.2388 67.4833 56.2964 67.361 56.3196 67.2294C56.3428 67.0977 56.3309 66.9618 56.2851 66.8369C56.2393 66.712 56.1615 66.603 56.0603 66.5222L54.7582 65.4818C56.4451 61.9809 57.2035 58.0635 56.9533 54.1447L55.5899 54.2427C55.6797 55.6503 55.6306 57.064 55.4432 58.4609C55.1236 60.8729 54.3918 63.2037 53.2833 65.3398C53.2045 65.4915 53.18 65.6681 53.2143 65.8373C53.2486 66.0064 53.3394 66.157 53.4701 66.2614L54.1459 66.8015L49.7678 68.1268L49.7882 63.3193L50.037 63.5176C50.1172 63.5816 50.2097 63.6262 50.3081 63.6481C50.4064 63.6701 50.5081 63.6688 50.606 63.6445C50.7038 63.6202 50.7953 63.5734 50.8741 63.5075C50.9528 63.4415 51.0168 63.3581 51.0615 63.263C51.8339 61.6181 52.3509 59.8529 52.5927 58.0348C53.8464 48.6698 47.6479 39.9736 38.7753 38.6506C34.9135 38.0675 30.9822 38.9768 27.7053 41.2111L26.16 38.6464C30.0156 36.0246 34.6373 34.9575 39.1778 35.6409Z" fill="#00B412"/>
<circle cx="110" cy="84" r="4" fill="#E5E5E5"/>
<path d="M109 83.206H109.516C109.516 82.738 109.822 82.456 110.314 82.456C110.8 82.456 111.112 82.756 111.112 83.236C111.112 83.962 110.53 84.094 109.846 84.094H109.672L109.696 85.042H110.17L110.188 84.472C111.028 84.472 111.634 84.112 111.634 83.236C111.634 82.474 111.094 82 110.308 82C109.522 82 108.994 82.48 109 83.206ZM110.29 85.9C110.29 85.69 110.128 85.528 109.93 85.528C109.72 85.528 109.558 85.69 109.558 85.9C109.558 86.11 109.72 86.272 109.93 86.272C110.128 86.272 110.29 86.11 110.29 85.9Z" fill="#333333"/>
</svg>

