<svg width="512" height="512" viewBox="0 0 512 512" fill="none" xmlns="http://www.w3.org/2000/svg">
<path d="M366.946 0C453.711 0 512 60.8797 512 151.468V360.532C512 451.12 453.711 512 366.92 512H145.054C58.2885 512 0 451.12 0 360.532V151.468C0 60.8797 58.2885 0 145.054 0H366.946ZM395.177 270.081C367.735 252.962 346.549 277.003 340.834 284.691C335.325 292.115 330.588 300.305 325.594 308.495C313.392 328.705 299.414 352.007 275.215 365.56C240.051 385.03 213.356 367.092 194.152 354.041C186.944 349.18 179.942 344.583 172.965 341.518C155.769 334.095 140.298 342.549 117.335 371.715C105.287 386.959 93.3428 402.071 81.2437 417.129C74.01 426.138 75.7348 440.035 85.4913 446.058C101.066 455.648 120.064 460.8 141.533 460.8H357.283C369.46 460.8 381.662 459.136 393.298 455.331C419.504 446.772 440.304 427.169 451.167 401.278C460.332 379.509 464.785 353.09 456.213 331.109C453.355 323.818 449.082 317.028 443.084 311.057C427.355 295.444 412.656 280.86 395.177 270.081ZM166.371 102.4C131.077 102.4 102.4 131.116 102.4 166.4C102.4 201.684 131.077 230.4 166.371 230.4C201.638 230.4 230.342 201.684 230.342 166.4C230.342 131.116 201.638 102.4 166.371 102.4Z" fill="white"/>
</svg>
