<svg width="512" height="512" viewBox="0 0 512 512" fill="none" xmlns="http://www.w3.org/2000/svg">
<path d="M235.676 329.438L128.19 450.404C125.276 453.682 120.338 454.241 116.802 451.645C97.2697 437.307 75.5938 415.808 60.7202 395.662C58.1072 392.122 58.6533 387.168 61.9435 384.245L182.973 276.713C185.207 274.727 188.318 274.056 191.172 274.944L222.187 284.586C224.87 285.42 226.969 287.52 227.803 290.202L237.446 321.239C238.332 324.093 237.661 327.204 235.676 329.438V329.438Z" fill="white"/>
<path d="M104.183 463.522C108.165 466.533 108.759 472.279 105.443 476.011L82.5884 501.729C48.5175 540.112 -28.0391 464.167 10.6626 429.814L36.3368 407.003C40.0675 403.689 45.8086 404.287 48.8268 408.262C63.5213 427.613 84.0122 448.267 104.183 463.522Z" fill="white"/>
<path d="M160.55 78.5984C150.119 85.936 141.118 94.9481 133.77 105.368C123.871 119.434 102.857 119.483 92.9009 105.368C85.4822 94.8436 76.3752 85.8048 66.1313 78.5984C52.0715 68.6979 51.9872 47.6961 66.11 37.7189C76.5299 30.3812 85.5419 21.3692 92.8902 10.9493C102.819 -3.15108 123.845 -3.16068 133.78 10.9493C141.129 21.3692 150.141 30.3812 160.561 37.7189C174.672 47.6716 174.609 68.6819 160.55 78.5984V78.5984Z" fill="white"/>
<path d="M502.102 402.457C492.792 409.026 484.74 417.079 478.17 426.4C468.907 439.559 449.235 439.58 439.957 426.4C433.387 417.079 425.335 409.026 416.013 402.457C402.844 393.186 402.822 373.511 416.003 364.233C425.313 357.674 433.376 349.621 439.946 340.3C449.215 327.11 468.879 327.097 478.181 340.3C484.75 349.621 492.802 357.674 502.124 364.233C515.34 373.553 515.251 393.216 502.102 402.457V402.457Z" fill="white"/>
<path d="M404.015 55.6792C392.663 46.9188 392.639 29.8247 404.004 21.0601C408.558 17.5406 412.653 13.4345 416.173 8.88047C424.995 -2.52272 442.07 -2.44913 450.813 8.88047C454.344 13.4345 458.439 17.5406 462.993 21.0601C474.356 29.8236 474.338 46.9167 462.982 55.6792C458.418 59.1987 454.322 63.2941 450.803 67.8588C442.053 79.2044 424.964 79.214 416.184 67.8588C412.664 63.2941 408.569 59.1987 404.015 55.6792V55.6792Z" fill="white"/>
<path d="M405.668 289.694L351.628 289.011C347.596 288.979 343.736 290.91 341.389 294.226L310.183 338.348C296.086 358.272 265.3 353.337 258.073 330.093L242.033 278.495C240.828 274.613 237.788 271.574 233.906 270.368L182.297 254.317C159.032 247.108 154.145 216.273 174.053 202.218L218.175 171.012C221.492 168.666 223.443 164.837 223.39 160.773L222.697 106.733C222.398 82.3889 250.137 68.1925 269.709 82.7792L313.02 115.105C316.273 117.537 320.518 118.209 324.368 116.897L375.55 99.5448C398.576 91.7241 420.682 113.722 412.856 136.852L395.494 188.023C394.192 191.884 394.864 196.118 397.296 199.381L429.611 242.692C444.176 262.204 430.049 290.017 405.668 289.694Z" fill="white"/>
</svg>
