<svg width="40" height="36" viewBox="0 0 40 36" fill="none" xmlns="http://www.w3.org/2000/svg">
<g clip-path="url(#clip0)">
<path d="M0 25.03C0.79187 22.3783 1.58374 19.7264 2.37561 17.074C2.88735 15.3625 3.39978 13.6514 3.91289 11.9406C3.93823 11.8253 3.99875 11.7207 4.08609 11.6413V12.0461C4.08609 15.4722 4.06252 18.8973 4.09429 22.3233C4.11683 24.7932 5.19395 26.6933 7.37382 27.9139C8.30541 28.4366 9.32616 28.6395 10.393 28.6375C14.8286 28.6334 19.2642 28.6334 23.6997 28.6375H33.9821C33.7125 29.5035 33.4532 30.3387 33.1919 31.1729C32.9675 31.8903 32.7399 32.6077 32.5155 33.3251C32.0656 34.7599 31.1043 35.6249 29.6357 35.9344C29.5749 35.9516 29.5156 35.9735 29.4584 36H28.4612C28.2296 35.9354 27.999 35.8698 27.7674 35.8073C21.8191 34.2092 15.8709 32.6142 9.92262 31.0223C7.46298 30.3623 4.99411 29.7125 2.54369 29.0269C1.6039 28.7635 0.90392 28.1425 0.464258 27.2744C0.264412 26.8819 0.156803 26.4443 0.00512458 26.0282L0 25.03Z" fill="white"/>
<path d="M22.9291 9.36724e-06C26.9691 9.36724e-06 31.0091 -0.00613975 35.049 9.36724e-06C37.0987 9.36724e-06 38.6883 1.21753 39.1484 3.13093C39.2314 3.49151 39.2717 3.86061 39.2683 4.2306C39.2752 10.1365 39.2752 16.0434 39.2683 21.9513C39.2683 24.411 37.4923 26.1737 35.0275 26.1747C26.9476 26.1747 18.8673 26.1747 10.7867 26.1747C8.32701 26.1747 6.54069 24.4181 6.53557 21.9565C6.52395 16.0369 6.52395 10.1174 6.53557 4.19781C6.54069 1.74738 8.30446 0.00513432 10.761 -0.00408936C14.8225 1.0055e-05 18.8758 9.36724e-06 22.9291 9.36724e-06ZM20.3557 17.0126C20.49 16.8558 20.5822 16.7502 20.6714 16.6426C22.5544 14.3879 24.4367 12.1302 26.3183 9.86934C27.6506 8.27467 29.6204 8.26135 30.9701 9.8345C32.5101 11.6287 34.0474 13.4239 35.5819 15.2201C35.6926 15.3482 35.8095 15.4722 35.9499 15.63C35.968 15.5756 35.9818 15.5197 35.9909 15.463C35.9909 11.6792 35.9909 7.89582 35.9909 4.11274C35.9909 3.61262 35.6834 3.31438 35.1792 3.27236C35.0521 3.26211 34.924 3.27236 34.7959 3.27236H15.9304C14.2179 3.27236 12.5053 3.27236 10.7928 3.27236C10.1359 3.27236 9.82125 3.58802 9.82022 4.23163C9.82022 9.22881 9.82022 14.2263 9.82022 19.2242C9.82827 19.3199 9.8423 19.4151 9.86224 19.5091C11.3391 18.0302 12.7718 16.5903 14.2107 15.1555C15.5153 13.8529 17.2135 13.8529 18.5243 15.1555C19.132 15.752 19.7264 16.369 20.3557 17.0126Z" fill="white"/>
<path d="M14.7447 11.4507C14.0984 11.4521 13.4663 11.2619 12.9281 10.9041C12.39 10.5464 11.97 10.0371 11.7212 9.44071C11.4724 8.84429 11.406 8.18751 11.5304 7.55337C11.6547 6.91923 11.9643 6.3362 12.42 5.87796C12.8756 5.41973 13.4569 5.10686 14.0903 4.9789C14.7238 4.85094 15.3809 4.91363 15.9787 5.15906C16.5765 5.40449 17.0882 5.82162 17.449 6.35775C17.8098 6.89388 18.0035 7.52494 18.0057 8.17116C18.0031 9.03694 17.6592 9.86676 17.0487 10.4807C16.4383 11.0946 15.6104 11.4431 14.7447 11.4507Z" fill="white"/>
</g>
<defs>
<clipPath id="clip0">
<rect width="39.2785" height="36" fill="white"/>
</clipPath>
</defs>
</svg>
