<svg width="90" height="80" viewBox="0 0 90 80" fill="none" xmlns="http://www.w3.org/2000/svg">
<path d="M32.2902 59.6064C31.4804 63.5875 30.9546 65.5124 27.8817 65.7589C27.1244 65.8197 26.5078 66.3912 26.3897 67.1416C26.2713 67.8917 26.6825 68.6253 27.3844 68.916C27.5819 68.9976 32.2819 70.9181 37.7731 70.9183C37.774 70.9183 37.7745 70.9183 37.775 70.9183C41.6017 70.9183 44.8842 69.9907 47.5312 68.1615C50.668 65.994 52.8306 62.6018 53.9804 58.0832L43.4134 47.4318C34.4832 48.8772 33.2181 55.0445 32.2902 59.6064Z" fill="white"/>
<path d="M88.4181 12.8278C88.134 12.5412 87.6272 12.1996 86.8275 12.1996C85.8898 12.1996 83.3987 12.1996 68.2697 25.0734C61.2813 31.0199 53.224 38.3764 46.8151 44.6366L56.8427 54.744C63.4344 47.8926 71.1238 39.3051 77.239 31.9349C81.1007 27.2814 84.0701 23.4417 86.0648 20.5227C88.7069 16.6563 89.8641 14.2849 88.4181 12.8278Z" fill="white"/>
<path d="M50.0231 71.7676C46.6296 74.1127 42.5088 75.3014 37.7729 75.3014C31.5395 75.3011 26.2889 73.2059 25.7062 72.9653C23.1241 71.8953 21.6248 69.2195 22.0598 66.4591C22.4858 63.7549 24.6523 61.6997 27.3584 61.4057C27.5943 60.7014 27.8551 59.4185 27.9948 58.7325C28.5093 56.2039 29.2136 52.7402 31.3804 49.6574C33.7465 46.2913 37.3132 44.133 41.9965 43.2287C44.6842 40.5612 47.7509 37.6282 50.951 34.6517C49.3333 34.3007 47.8868 33.2471 47.111 31.6535C45.7754 28.9085 46.9403 25.6065 49.7092 24.2854C52.4852 22.9611 55.8148 24.1178 57.1484 26.8669C57.4117 27.4088 57.5745 27.9718 57.6503 28.537C60.3044 26.1598 62.9402 23.8526 65.4285 21.7352C65.4433 21.7226 65.4573 21.7105 65.4724 21.6979C62.6755 16.3459 58.6648 11.604 53.778 7.97324C46.7608 2.75957 38.4052 0.00219165 29.615 0C29.6122 0 29.6103 0 29.6081 0C23.6759 0 16.4648 2.07276 10.7881 5.41037C3.83019 9.50109 -0.00136942 14.972 3.67146e-07 20.8147C0.00219202 27.8685 3.98059 30.819 7.17739 33.1896C9.78409 35.1229 11.8429 36.6497 11.844 39.9958C11.8448 43.3416 9.7871 44.867 7.18177 46.7984C3.98607 49.1675 0.00849302 52.1164 0.0106847 59.1711C0.0123284 65.0129 3.84635 70.4852 10.8062 74.5795C16.487 77.9212 23.7019 79.9984 29.6353 80C29.6394 80 29.6429 80 29.6468 80C40.4146 80 50.5371 75.8438 58.1503 68.2966C63.8587 62.638 67.6445 55.5806 69.1834 47.9027C65.3611 52.1411 61.5134 56.2565 58.0709 59.771C56.6107 65.0518 53.9073 69.0837 50.0231 71.7676ZM30.424 16.5993C31.1083 13.6211 34.095 11.7621 37.0959 12.4442C40.0927 13.1231 41.9704 16.0829 41.291 19.057C40.6064 22.0278 37.6181 23.8871 34.6169 23.2085C31.6176 22.5335 29.7391 19.5701 30.424 16.5993ZM12.3428 26.7491C10.4238 24.3613 10.8183 20.8862 13.2239 18.9855C15.6292 17.0883 19.1334 17.4773 21.056 19.8608C22.971 22.245 22.5751 25.7201 20.1714 27.6247C17.7713 29.526 14.2616 29.1328 12.3428 26.7491ZM15.272 63.1897C12.865 61.2874 12.4691 57.8123 14.3882 55.4253C16.3059 53.0429 19.8114 52.6523 22.2182 54.5541C24.6229 56.4562 25.0191 59.9316 23.1017 62.3145C21.1842 64.7014 17.6784 65.0918 15.272 63.1897Z" fill="white"/>
</svg>
